<svg width="342" height="640" viewBox="0 0 342 640" fill="none" xmlns="http://www.w3.org/2000/svg">
<g filter="url(#filter0_d_449_127)">
<mask id="path-1-inside-1_449_127" fill="white">
<path fill-rule="evenodd" clip-rule="evenodd" d="M323.004 48.1253C324.652 48.2899 326 49.6173 326 51.2741V588.726C326 590.383 324.652 591.71 323.004 591.875C308.236 593.349 296.494 605.611 295.132 621.002C294.986 622.653 293.657 624 292 624H50C48.3431 624 47.0141 622.653 46.8681 621.002C45.5064 605.611 33.7642 593.349 18.9962 591.875C17.3475 591.71 16 590.383 16 588.726V51.274C16 49.6171 17.3475 48.2898 18.9962 48.1252C34.7112 46.5561 47 32.7722 47 16V16C47 16 47 16 47 16H295C295 16 295 16.0001 295 16.0001V16.0001C295 32.7723 307.289 46.5563 323.004 48.1253Z"/>
</mask>
<path fill-rule="evenodd" clip-rule="evenodd" d="M323.004 48.1253C324.652 48.2899 326 49.6173 326 51.2741V588.726C326 590.383 324.652 591.71 323.004 591.875C308.236 593.349 296.494 605.611 295.132 621.002C294.986 622.653 293.657 624 292 624H50C48.3431 624 47.0141 622.653 46.8681 621.002C45.5064 605.611 33.7642 593.349 18.9962 591.875C17.3475 591.71 16 590.383 16 588.726V51.274C16 49.6171 17.3475 48.2898 18.9962 48.1252C34.7112 46.5561 47 32.7722 47 16V16C47 16 47 16 47 16H295C295 16 295 16.0001 295 16.0001V16.0001C295 32.7723 307.289 46.5563 323.004 48.1253Z" fill="#DFE2D8"/>
<path d="M18.9962 48.1252L19.3936 52.1054L18.9962 48.1252ZM18.9962 591.875L18.5988 595.855L18.9962 591.875ZM46.8681 621.002L42.8836 621.355L46.8681 621.002ZM295.132 621.002L299.116 621.355L295.132 621.002ZM323.004 48.1253L322.606 52.1055L323.004 48.1253ZM323.004 591.875L323.401 595.855L323.004 591.875ZM330 588.726V51.2741H322V588.726H330ZM299.116 621.355C300.319 607.764 310.656 597.128 323.401 595.855L322.606 587.895C305.816 589.571 292.668 603.458 291.148 620.65L299.116 621.355ZM50 628H292V620H50V628ZM18.5988 595.855C31.344 597.128 41.6813 607.764 42.8836 621.355L50.8525 620.65C49.3316 603.458 36.1843 589.571 19.3936 587.895L18.5988 595.855ZM12 51.274V588.726H20V51.274H12ZM43 16C43 30.828 32.1601 42.791 18.5988 44.145L19.3936 52.1054C37.2623 50.3213 51 34.7164 51 16H43ZM295 12H47V20H295V12ZM323.401 44.1451C309.84 42.7911 299 30.8281 299 16.0001H291C291 34.7165 304.738 50.3214 322.606 52.1055L323.401 44.1451ZM295 20C292.791 20 291 18.2092 291 16.0001H299C299 13.7909 297.209 12 295 12V20ZM51 16C51 17.842 49.83 18.895 49.3217 19.2572C48.7474 19.6666 47.951 20 47 20V12C46.0491 12 45.2526 12.3334 44.6783 12.7428C44.1701 13.105 43 14.158 43 16H51ZM20 51.274C20 51.5677 19.8725 51.7998 19.7504 51.9256C19.6401 52.0394 19.5148 52.0933 19.3936 52.1054L18.5988 44.145C15.1584 44.4885 12 47.3169 12 51.274H20ZM19.3936 587.895C19.5148 587.907 19.6401 587.961 19.7504 588.074C19.8725 588.2 20 588.432 20 588.726H12C12 592.683 15.1584 595.512 18.5988 595.855L19.3936 587.895ZM50 620C50.292 620 50.5268 620.126 50.6584 620.255C50.779 620.372 50.8402 620.511 50.8525 620.65L42.8836 621.355C43.1922 624.843 46.0507 628 50 628V620ZM291.148 620.65C291.16 620.511 291.221 620.372 291.342 620.255C291.473 620.126 291.708 620 292 620V628C295.949 628 298.808 624.843 299.116 621.355L291.148 620.65ZM330 51.2741C330 47.317 326.842 44.4886 323.401 44.1451L322.606 52.1055C322.485 52.0934 322.36 52.0395 322.25 51.9257C322.128 51.8 322 51.5679 322 51.2741H330ZM322 588.726C322 588.432 322.128 588.2 322.25 588.074C322.36 587.961 322.485 587.907 322.606 587.895L323.401 595.855C326.842 595.512 330 592.683 330 588.726H322Z" fill="#F25828" mask="url(#path-1-inside-1_449_127)"/>
</g>
<defs>
<filter id="filter0_d_449_127" x="0" y="0" width="342" height="640" filterUnits="userSpaceOnUse" color-interpolation-filters="sRGB">
<feFlood flood-opacity="0" result="BackgroundImageFix"/>
<feColorMatrix in="SourceAlpha" type="matrix" values="0 0 0 0 0 0 0 0 0 0 0 0 0 0 0 0 0 0 127 0" result="hardAlpha"/>
<feOffset/>
<feGaussianBlur stdDeviation="8"/>
<feComposite in2="hardAlpha" operator="out"/>
<feColorMatrix type="matrix" values="0 0 0 0 0 0 0 0 0 0 0 0 0 0 0 0 0 0 0.25 0"/>
<feBlend mode="normal" in2="BackgroundImageFix" result="effect1_dropShadow_449_127"/>
<feBlend mode="normal" in="SourceGraphic" in2="effect1_dropShadow_449_127" result="shape"/>
</filter>
</defs>
</svg>
