<svg width="46" height="46" viewBox="0 0 46 46" fill="none" xmlns="http://www.w3.org/2000/svg">
<path d="M22.9565 32.8498C28.4685 32.8498 32.9368 28.3815 32.9368 22.8696C32.9368 17.3576 28.4685 12.8893 22.9565 12.8893C17.4446 12.8893 12.9763 17.3576 12.9763 22.8696C12.9763 28.3815 17.4446 32.8498 22.9565 32.8498Z" stroke="#F25828" stroke-miterlimit="10"/>
<path d="M22.9566 29.8557C26.815 29.8557 29.9428 26.7279 29.9428 22.8696C29.9428 19.0112 26.815 15.8834 22.9566 15.8834C19.0983 15.8834 15.9705 19.0112 15.9705 22.8696C15.9705 26.7279 19.0983 29.8557 22.9566 29.8557Z" stroke="#F25828" stroke-miterlimit="10"/>
<path d="M22.9564 26.8617C25.1612 26.8617 26.9485 25.0744 26.9485 22.8696C26.9485 20.6648 25.1612 18.8775 22.9564 18.8775C20.7517 18.8775 18.9644 20.6648 18.9644 22.8696C18.9644 25.0744 20.7517 26.8617 22.9564 26.8617Z" stroke="#F25828" stroke-miterlimit="10"/>
<path d="M22.9566 23.8676C23.5078 23.8676 23.9547 23.4207 23.9547 22.8695C23.9547 22.3184 23.5078 21.8715 22.9566 21.8715C22.4054 21.8715 21.9586 22.3184 21.9586 22.8695C21.9586 23.4207 22.4054 23.8676 22.9566 23.8676Z" stroke="#F25828" stroke-miterlimit="10"/>
<path d="M22.9566 35.8438C30.1221 35.8438 35.9309 30.0351 35.9309 22.8696C35.9309 15.7041 30.1221 9.89526 22.9566 9.89526C15.7911 9.89526 9.9823 15.7041 9.9823 22.8696C9.9823 30.0351 15.7911 35.8438 22.9566 35.8438Z" stroke="#F25828" stroke-miterlimit="10"/>
<path d="M22.9565 38.838C31.7756 38.838 38.9249 31.6887 38.9249 22.8696C38.9249 14.0505 31.7756 6.90125 22.9565 6.90125C14.1374 6.90125 6.98816 14.0505 6.98816 22.8696C6.98816 31.6887 14.1374 38.838 22.9565 38.838Z" stroke="#F25828" stroke-miterlimit="10"/>
<path d="M22.9566 41.832C33.4292 41.832 41.919 33.3422 41.919 22.8696C41.919 12.3969 33.4292 3.90717 22.9566 3.90717C12.4839 3.90717 3.99414 12.3969 3.99414 22.8696C3.99414 33.3422 12.4839 41.832 22.9566 41.832Z" stroke="#F25828" stroke-miterlimit="10"/>
<path d="M22.9565 44.8261C35.0827 44.8261 44.913 34.9958 44.913 22.8696C44.913 10.7433 35.0827 0.913086 22.9565 0.913086C10.8303 0.913086 1 10.7433 1 22.8696C1 34.9958 10.8303 44.8261 22.9565 44.8261Z" stroke="#F25828" stroke-miterlimit="10"/>
</svg>
