<svg width="207" height="414" viewBox="0 0 207 414" fill="none" xmlns="http://www.w3.org/2000/svg">
<path d="M207 307C180.478 307 155.043 296.464 136.289 277.711C117.536 258.957 107 233.522 107 207C107 180.478 117.536 155.043 136.289 136.289C155.043 117.536 180.478 107 207 107" stroke="#F25828" stroke-width="2.5" stroke-miterlimit="10"/>
<path d="M207 292C184.457 292 162.837 283.045 146.896 267.104C130.955 251.164 122 229.543 122 207C122 184.457 130.955 162.836 146.896 146.896C162.837 130.955 184.457 122 207 122" stroke="#F25828" stroke-width="2.5" stroke-miterlimit="10"/>
<path d="M207 277C188.435 277 170.63 269.625 157.503 256.497C144.375 243.37 137 225.565 137 207C137 188.435 144.375 170.63 157.503 157.503C170.63 144.375 188.435 137 207 137" stroke="#F25828" stroke-width="2.5" stroke-miterlimit="10"/>
<path d="M207 262C192.413 262 178.424 256.205 168.109 245.891C157.795 235.576 152 221.587 152 207C152 192.413 157.795 178.424 168.109 168.109C178.424 157.795 192.413 152 207 152" stroke="#F25828" stroke-width="2.5" stroke-miterlimit="10"/>
<path d="M207 247C196.391 247 186.217 242.786 178.716 235.284C171.214 227.783 167 217.609 167 207C167 196.391 171.214 186.217 178.716 178.716C186.217 171.214 196.391 167 207 167" stroke="#F25828" stroke-width="2.5" stroke-miterlimit="10"/>
<path d="M207 232C200.37 232 194.011 229.366 189.322 224.678C184.634 219.989 182 213.63 182 207C182 200.37 184.634 194.011 189.322 189.322C194.011 184.634 200.37 182 207 182" stroke="#F25828" stroke-width="2.5" stroke-miterlimit="10"/>
<path d="M207 217C204.348 217 201.804 215.946 199.929 214.071C198.054 212.196 197 209.652 197 207C197 204.348 198.054 201.804 199.929 199.929C201.804 198.054 204.348 197 207 197" stroke="#F25828" stroke-width="2.5" stroke-miterlimit="10"/>
<path d="M207 322C176.5 322 147.249 309.884 125.683 288.317C104.116 266.751 92 237.5 92 207C92 176.5 104.116 147.249 125.683 125.683C147.249 104.116 176.5 92 207 92" stroke="#F25828" stroke-width="2.5" stroke-miterlimit="10"/>
<path d="M207 337C172.522 337 139.456 323.304 115.076 298.924C90.6964 274.544 77 241.478 77 207C77 172.522 90.6964 139.456 115.076 115.076C139.456 90.6964 172.522 77 207 77" stroke="#F25828" stroke-width="2.5" stroke-miterlimit="10"/>
<path d="M207 352C168.544 352 131.662 336.723 104.47 309.531C77.2767 282.338 62 245.456 62 207C62 168.544 77.2767 131.662 104.47 104.469C131.662 77.2767 168.544 62 207 62" stroke="#F25828" stroke-width="2.5" stroke-miterlimit="10"/>
<path d="M207 367C164.565 367 123.869 350.143 93.8629 320.137C63.8571 290.131 47 249.435 47 207C47 164.565 63.8571 123.869 93.8629 93.8629C123.869 63.8571 164.565 47 207 47" stroke="#F25828" stroke-width="2.5" stroke-miterlimit="10"/>
<path d="M207 382C160.587 382 116.075 363.563 83.2563 330.744C50.4375 297.925 32 253.413 32 207C32 160.587 50.4375 116.075 83.2563 83.2563C116.075 50.4375 160.587 32 207 32" stroke="#F25828" stroke-width="2.5" stroke-miterlimit="10"/>
<path d="M207 397C102.07 397 17 311.94 17 207C17 102.06 102.07 17 207 17" stroke="#F25828" stroke-width="2.5" stroke-miterlimit="10"/>
<path d="M207 412C93.78 412 2 320.22 2 207C2 93.78 93.78 2 207 2" stroke="#F25828" stroke-width="2.5" stroke-miterlimit="10"/>
</svg>
